# This file uses centimeters as units for non-parametric coordinates.

mtllib board.mtl
g default
v -0.968831 -0.500000 -0.002309
v 1.031164 -0.500000 0.002309
v -0.968831 0.500000 -0.002309
v 1.031164 0.500000 0.002309
vt 0.002192 0.005267
vt 0.997808 0.005267
vt 0.002192 0.996913
vt 0.997808 0.996913
vn -0.002309 0.000000 0.999997
vn -0.002309 0.000000 0.999997
vn -0.002309 0.000000 0.999997
vn -0.002309 0.000000 0.999997
s 1
g pCube1
usemtl initialShadingGroup
f 1/1/1 2/2/2 3/3/3
f 3/3/3 2/2/2 4/4/4
